Coordinates
version=1
nRows=11
nColumns=36
inDegrees=yes

Units are S.I. units (second, meters, Newtons, ...)
If the header above contains a line with 'inDegrees', this indicates whether rotational values are in degrees (yes) or radians (no).

endheader
time	pelvis_tilt	pelvis_list	pelvis_rotation	pelvis_tx	pelvis_ty	pelvis_tz	hip_flexion_r	hip_adduction_r	hip_rotation_r	knee_angle_r	knee_angle_r_beta	ankle_angle_r	subtalar_angle_r	mtp_angle_r	hip_flexion_l	hip_adduction_l	hip_rotation_l	knee_angle_l	knee_angle_l_beta	ankle_angle_l	subtalar_angle_l	mtp_angle_l	lumbar_extension	lumbar_bending	lumbar_rotation	arm_flex_r	arm_add_r	arm_rot_r	elbow_flex_r	pro_sup_r	arm_flex_l	arm_add_l	arm_rot_l	elbow_flex_l	pro_sup_l
      0.00000000	      1.19497960	     -1.06042340	     10.15273977	      0.73987367	      0.92408052	      0.39124615	      1.35005018	      7.09345117	      5.39967926	      7.65585093	      0.13361981	      9.70543241	     -2.82964679	     -6.13489721	     32.10265191	     -4.43907619	      5.07004398	     16.38221534	      0.28592360	      4.18798524	    -12.06607442	     -6.13489721	     -7.09930311	      4.90680166	     -5.41264565	     34.81327383	     -2.49816099	     47.55591031	    126.78659352	     83.18828962	     29.89017852	      8.95233238	     68.92274742	    122.82357442	     95.09383836
      0.01666670	      1.91395789	     -2.51380782	      8.95046676	      0.73965091	      0.92305990	      0.39137788	      0.82652292	      9.51109871	      8.96910694	      6.89607245	      0.12035917	      5.92239613	     -9.20729728	     -6.31833384	     30.65918134	     -7.08408786	      6.65183960	     11.28185893	      0.19690558	      7.90077746	     -7.86669558	     -6.31833384	     -8.14349415	      7.73865873	     -1.89642918	     38.12703465	     -5.75095914	     56.16065563	    131.96270545	     96.94151259	     31.02885102	      8.98941231	     68.29226570	    126.36064981	    107.66595817
      0.03333330	      1.73255047	     -0.95381564	      6.92225123	      0.73436737	      0.92180266	      0.39887225	      1.73473811	      8.00465534	      6.88215510	      8.54429763	      0.14912613	      6.34127631	     -7.36923525	     -6.71792086	     29.70552758	     -7.37214725	      3.51244597	      8.37652697	      0.14619798	      8.34345371	     -5.17430735	     -6.71792086	     -8.56876317	      5.94056564	      0.10636626	     38.13643865	     -3.29460645	     54.17855963	    130.97492633	    101.37619909	     32.35442686	      8.06643226	     68.29002875	    128.21883366	    110.32999283
      0.05000000	      0.31401202	      0.78760790	      5.74412673	      0.73662034	      0.91858997	      0.40115362	      4.00087624	      5.96775850	      4.99864045	     10.23037160	      0.17855367	      8.11209761	     -4.78252576	     -6.74211632	     31.19469755	     -6.61616686	      1.89762026	      8.87365896	      0.15487457	      9.69932221	     -3.95739332	     -6.74211632	     -7.01618353	      3.60319685	      1.27839202	     37.25716659	     -1.75156917	     52.93203430	    129.57471575	    101.56799779	     32.58588167	      7.41323691	     68.26461717	    129.26208551	    110.19951374
      0.06666670	     -0.89369350	      2.17559089	      5.75300808	      0.73683411	      0.91844239	      0.40120811	      6.35244117	      4.28078798	      2.53596920	     12.26819409	      0.21412038	      9.28796522	     -2.95999065	     -6.89486654	     33.07830633	     -5.63664978	     -0.02204734	     11.07272828	      0.19325557	     10.77759812	     -2.73646443	     -6.89486654	     -5.97803067	      1.78373804	      1.81506460	     36.33724964	     -1.34654653	     52.43133424	    129.08734382	    101.24661556	     32.83674460	      7.24562575	     68.10828862	    129.39681789	    109.45214684
      0.08333330	     -1.74457172	      3.36874707	      5.72437035	      0.73849321	      0.91979738	      0.40193813	      8.04892949	      2.81281293	      1.37631989	     14.07757023	      0.24569995	     10.57294888	     -1.93943528	     -6.98353303	     34.34971349	     -4.60669814	     -1.58403901	     13.12108867	      0.22900620	     10.89855097	     -2.11031909	     -6.98353303	     -5.05178511	      0.45248086	      1.91123452	     35.31849390	     -0.74034590	     52.22289760	    128.09457751	     99.28604249	     32.61529605	      6.74205590	     67.61473378	    129.66706128	    107.10112295
      0.10000000	     -2.04829543	      4.27060662	      6.25155154	      0.74370874	      0.92011109	      0.40387959	      8.85697644	      1.78255754	      0.48468403	     15.53104855	      0.27106793	     11.66156180	     -1.74623847	     -6.99147224	     34.80884974	     -3.70663259	     -2.91050416	     14.74160190	      0.25728949	     10.21108537	     -1.69393314	     -6.99147224	     -4.64131276	     -0.72183825	      1.73584683	     34.02721641	     -0.24533489	     52.43489707	    128.04180954	     99.50286103	     32.06319563	      6.20161695	     67.33703441	    129.64006425	    107.19033085
      0.11666670	     -2.60804281	      4.66476259	      6.51175492	      0.73938743	      0.91570552	      0.40168593	     10.18248015	      1.14714483	     -0.35394202	     17.11952348	      0.29879205	     12.88269405	     -0.87721341	     -7.00690048	     35.85128053	     -3.23016857	     -3.84900650	     16.32358256	      0.28490026	      9.64434316	     -0.85648969	     -7.00690048	     -3.94642177	     -1.06197547	      1.60140329	     33.64549168	     -0.00426664	     52.33886471	    127.78801067	     99.77341063	     31.95379327	      6.16201306	     67.13644409	    130.26641894	    107.20545305
      0.13333330	     -2.68142544	      4.87470061	      6.67877577	      0.73896214	      0.91850714	      0.40150682	     10.81336024	      0.81884270	     -0.71671847	     18.21330780	      0.31788219	     13.76642067	     -0.27204366	     -7.08327821	     36.46023298	     -2.77742266	     -3.99644411	     17.08229287	      0.29814225	      9.31755031	     -0.03681055	     -7.08327821	     -4.15766852	     -1.16368285	      1.30085500	     33.30651549	      0.24134282	     53.42076677	    128.31577626	     97.98664846	     31.93020965	      6.05684901	     65.66557263	    129.16797305	    105.68354118
      0.15000000	     -2.56348039	      4.94058667	      7.01058498	      0.73959929	      0.91376050	      0.40189916	     11.33125152	      0.70930370	     -1.19483477	     19.39307711	      0.33847305	     14.53480513	     -0.03171470	     -7.09385902	     36.95003516	     -2.50959867	     -3.81953174	     17.82324924	      0.31107438	      9.21939162	      0.45749043	     -7.09385902	     -4.36069126	     -1.08374488	      1.06783750	     33.38604236	      0.39292544	     53.19123074	    128.43417101	     97.92063240	     32.36066041	      6.08623267	     64.96253527	    128.92978622	    105.43684413
      0.16666670	     -2.32065924	      5.10259005	      7.20440817	      0.74421814	      0.91932793	      0.40395197	     11.00802441	      0.60366297	     -1.41616835	     19.52818226	      0.34083108	     15.28006595	      0.23025967	     -7.10175227	     36.60053778	     -2.26113665	     -3.88127647	     17.77258745	      0.31019017	      8.87396679	      0.95356407	     -7.10175227	     -4.60136267	     -1.19135481	      0.98188781	     32.72710495	      0.52375264	     53.44998526	    128.31507666	     97.98898564	     32.32988094	      5.90540515	     63.78644118	    128.04934560	    105.43097458
